<svg xmlns="http://www.w3.org/2000/svg" viewBox="0 0 128 128"><defs><style>.cls-1{fill:#f8db94;}.cls-2{fill:#f8991d;}.cls-3{fill:#314967;}</style></defs><title>04 Costumer Care</title><g id="_04_Customer_Care" data-name="04 Customer Care"><path class="cls-1" d="M99.31,51.31v1.61c-10.8-34.43-59.81-34.48-70.62,0V51.31a12.69,12.69,0,0,0,0,25.38V75.08c10.8,34.43,59.81,34.48,70.62,0v1.61a12.69,12.69,0,0,0,0-25.38Z"/><path class="cls-2" d="M76.64,29.22c0,.6,0,.53,0,0A37,37,0,0,0,27,64.42a37,37,0,0,0,41-11A36.92,36.92,0,0,0,96.35,66.64a37.3,37.3,0,0,0,4.57-.29c0-.78.08-1.56.08-2.35A37,37,0,0,0,76.64,29.22Z"/><path class="cls-3" d="M73.56,48.92a38.77,38.77,0,0,0,3.68-8.86A2,2,0,0,0,73.38,39a34.75,34.75,0,0,1-3.3,7.94A2,2,0,0,0,73.56,48.92Z"/><path class="cls-3" d="M110,54c-.41-23.13-17.25-40.93-39-44.22a2,2,0,0,0-.6,4c18,2.73,33.49,16.77,35.38,37.14a14.57,14.57,0,0,0-5.74-1.53c-4.48-11-12.52-17.9-22.81-22h0a39,39,0,0,0-34.69,4,2,2,0,0,0,2.2,3.34,35,35,0,0,1,29.81-4.06c0,.86-.08,1.72-.17,2.57a2,2,0,0,0,4,.4c0-.47.08-1,.11-1.44A35,35,0,0,1,99,64.53,34.92,34.92,0,0,1,69.53,52.12a2,2,0,0,0-3.12.07,35.05,35.05,0,0,1-34,11.71,2,2,0,0,0-.82,3.92,39.23,39.23,0,0,0,8,.83A38.92,38.92,0,0,0,68,56.41a38.89,38.89,0,0,0,30.7,12.15,34.81,34.81,0,0,1-7.82,17.85A2,2,0,0,0,94,89a38.86,38.86,0,0,0,6.19-10.33A14.67,14.67,0,0,0,110,54Zm-8.46,20.44a39.22,39.22,0,0,0,0-20.89C112.75,56,112.77,72,101.58,74.44Z"/><path class="cls-3" d="M87,90.42A35,35,0,0,1,44.69,93.2a2,2,0,0,0-2.21,3.33,39,39,0,0,0,47.1-3.1A2,2,0,0,0,87,90.42Z"/><path class="cls-3" d="M38.19,34.76a39.21,39.21,0,0,0-3.44,3.44,2,2,0,0,0,3,2.65,35.55,35.55,0,0,1,3.09-3.09A2,2,0,0,0,38.19,34.76Z"/><path class="cls-3" d="M59.16,90.67a5.24,5.24,0,1,0,0-4H37.34a35,35,0,0,1-2.63-41.84,2,2,0,0,0-3.34-2.19,38.81,38.81,0,0,0-3.5,6.72,14.57,14.57,0,0,0-5.77,1.54C24.2,28.39,43,13.25,64,13.25a2,2,0,0,0,0-4C39.68,9.25,18.39,27.85,17.93,54a14.62,14.62,0,0,0,0,20c.41,8.5,7,16.66,18.46,16.66ZM22.59,77.36a3.93,3.93,0,0,0,1.56.49A2,2,0,0,0,24.87,74C15,70.2,16.08,55.79,26.44,53.55a38.94,38.94,0,0,0,5.5,32.64A13.55,13.55,0,0,1,22.59,77.36Z"/></g></svg>