<svg xmlns="http://www.w3.org/2000/svg" viewBox="0 0 128 128"><defs><style>.cls-1{fill:#48b749;}.cls-2{fill:#bccd30;}.cls-3{fill:#314967;}</style></defs><title>07 Gift</title><g id="_07_Gift" data-name="07 Gift"><path class="cls-1" d="M19,52h89.83a0,0,0,0,1,0,0v54a6,6,0,0,1-6,6H25a6,6,0,0,1-6-6V52A0,0,0,0,1,19,52Z"/><rect class="cls-1" x="16" y="34" width="96" height="18" rx="4" ry="4"/><rect class="cls-2" x="55" y="34" width="18" height="18"/><rect class="cls-2" x="55" y="52" width="18" height="60"/><path class="cls-3" d="M53,54V83.45a2,2,0,0,0,4,0V54H84.59a2,2,0,0,0,0-4H75a2,2,0,1,0-4,0H57V46.82a2,2,0,0,0-4,0V50H20a2,2,0,0,1-2-2V38a2,2,0,0,1,2-2h5.69a2,2,0,0,0,0-4H20a6,6,0,0,0-6,6V48a6,6,0,0,0,6,6Z"/><path class="cls-3" d="M108,32H99.43c2.25-2.71-1.32-4.86-2.85-2.82A6.94,6.94,0,0,1,91,32H70L86.78,19.41A7,7,0,0,1,98,25a2,2,0,0,0,4,0,11,11,0,0,0-17.59-8.79L64,31.5,48.39,19.79A2,2,0,0,0,46,23l12,9H37a7,7,0,1,1,4.19-12.59,2,2,0,0,0,2.4-3.2A11,11,0,1,0,37,36H53v4.56a2,2,0,0,0,4,0V36H71v8.05a2,2,0,0,0,4,0V36h33a2,2,0,0,1,2,2V48a2,2,0,0,1-2,2H90.25a2,2,0,0,0,0,4h16.58V83.79a2,2,0,0,0,4,0V53.29A6,6,0,0,0,114,48V38A6,6,0,0,0,108,32Z"/><path class="cls-3" d="M106.83,89.57V106a4,4,0,0,1-4,4H75V57.54a2,2,0,0,0-4,0V110H57V89.45a2,2,0,0,0-4,0V110H25a4,4,0,0,1-4-4V58.44a2,2,0,0,0-4,0V106a8,8,0,0,0,8,8h77.83a8,8,0,0,0,8-8V89.57A2,2,0,0,0,106.83,89.57Z"/></g></svg>