<svg xmlns="http://www.w3.org/2000/svg" viewBox="0 0 128 128"><defs><style>.cls-1{fill:#fd0;}.cls-2{fill:#314967;}</style></defs><title>08 Sales</title><g id="_08_Sales" data-name="08 Sales"><path class="cls-1" d="M20.24,59.76C65.61,14.39,63,16,66.49,16H106a6,6,0,0,1,6,6c0,42.9.65,41.35-1.76,43.76l-42,42a6,6,0,0,1-8.49,0L20.24,68.24A6,6,0,0,1,20.24,59.76ZM94,40a6,6,0,1,0-6-6A6,6,0,0,0,94,40Z"/><path class="cls-2" d="M63.88,80.75c.65,3.89,6,2.53,5.34-.86L64.17,47.24c-.64-3.94-6.14-2.44-5.33.9l5,32.6Z"/><path class="cls-2" d="M42.71,70.65l.06.06c8,8,19.39-3.28,11.21-11.46S34.65,62.59,42.71,70.65Zm4-4.15c-3.16-3.16.16-6.15,3.22-3.09C53.2,66.63,49.89,69.65,46.74,66.5Z"/><path class="cls-2" d="M74,68.7l.06.06c8,8,19.38-3.29,11.21-11.45C77.4,49.44,65.82,60.53,74,68.7Zm4-4.15c-3.14-3.14.14-6.17,3.28-3S81.19,67.72,78,64.55Z"/><path class="cls-2" d="M41.41,41.41,52.29,30.54a2,2,0,0,0-2.83-2.83L38.59,38.59A2,2,0,0,0,41.41,41.41Z"/><path class="cls-2" d="M86.42,31.43A8,8,0,1,0,94,26a2,2,0,0,0,0,4,4,4,0,1,1-3.79,2.72A2,2,0,0,0,86.42,31.43Z"/><path class="cls-2" d="M106,14H66.49c-4.17,0-5.34,2-12.9,9.59a2,2,0,0,0,2.83,2.83C64.17,18.66,64.34,18,66.49,18H106a4,4,0,0,1,4,4V61.51c0,2.29,1.71-.05-34.43,36.09a2,2,0,0,0,2.83,2.83l33.26-33.26C114.83,64,114,64.53,114,22A8,8,0,0,0,106,14Z"/><path class="cls-2" d="M71.72,101.45l-4.89,4.89a4.1,4.1,0,0,1-5.66,0L21.66,66.83a4,4,0,0,1,0-5.66L37.38,45.45a2,2,0,0,0-2.83-2.83L18.83,58.34a8,8,0,0,0,0,11.31l39.51,39.51a8,8,0,0,0,11.31,0l4.89-4.89A2,2,0,0,0,71.72,101.45Z"/></g></svg>