<svg xmlns="http://www.w3.org/2000/svg" viewBox="0 0 128 128"><defs><style>.cls-1{fill:#f8991d;}.cls-2{fill:#f8db94;}.cls-3{fill:#314967;}</style></defs><title>11 Packaging</title><g id="_11_Packaging" data-name="11 Packaging"><rect class="cls-1" x="19" y="19" width="90" height="90" rx="6" ry="6"/><polygon class="cls-2" points="76 55 70.01 49 64.01 55 58 49 52 55 52 19 76 19 76 55"/><path class="cls-3" d="M107,90v13a4,4,0,0,1-4,4H25a4,4,0,0,1-4-4V45.64a2,2,0,0,0-4,0V103a8,8,0,0,0,8,8h78a8,8,0,0,0,8-8V90A2,2,0,0,0,107,90Z"/><path class="cls-3" d="M107,67.85v15a2,2,0,0,0,4,0v-15A2,2,0,0,0,107,67.85Z"/><path class="cls-3" d="M103,17H25a8,8,0,0,0-8,8V38a2,2,0,0,0,4,0V25a4,4,0,0,1,4-4H74V33.46a2,2,0,0,0,4,0V21h25a4,4,0,0,1,4,4V60.64a2,2,0,0,0,4,0V25A8,8,0,0,0,103,17Z"/><path class="cls-3" d="M54,42.69V25a2,2,0,0,0-4,0V42.69A2,2,0,0,0,54,42.69Z"/><path class="cls-3" d="M50,55a2,2,0,0,0,3.41,1.42L58,51.83l4.59,4.59a2,2,0,0,0,2.83,0L70,51.83l4.58,4.58A2,2,0,0,0,78,55V40.23a2,2,0,0,0-4,0v9.94l-2.58-2.58a2,2,0,0,0-2.83,0L64,52.17l-4.59-4.59a2,2,0,0,0-2.83,0L54,50.17V48.64a2,2,0,0,0-4,0Z"/><path class="cls-3" d="M76.13,71.84a2,2,0,0,0-2.83,0L68.55,76.6A2,2,0,0,0,70,80h2.76v6a2,2,0,0,0,4,0V80h2.76a2,2,0,0,0,1.41-3.41Z"/><path class="cls-3" d="M94.24,86V80H97a2,2,0,0,0,1.41-3.41l-4.76-4.76a2,2,0,0,0-2.83,0L86.07,76.6A2,2,0,0,0,87.48,80h2.76v6A2,2,0,0,0,94.24,86Z"/><path class="cls-3" d="M70,96H97a2,2,0,0,0,0-4H70A2,2,0,0,0,70,96Z"/></g></svg>