<svg xmlns="http://www.w3.org/2000/svg" viewBox="0 0 128 128"><defs><style>.cls-1{fill:#fd0;}.cls-2{fill:#f8991d;}.cls-3{fill:#0083ca;}.cls-4{fill:#314967;}</style></defs><title>12 Favorite</title><g id="_12_Favorite" data-name="12 Favorite"><path class="cls-1" d="M89.2,58.12l6.87-6.87a3.18,3.18,0,0,0,0-4.5c-7.34-7.34-7.8-7.38-7.8-9.12V27.92a3.18,3.18,0,0,0-3.18-3.18c-10.37,0-10.74.3-12-.93l-6.87-6.87a3.18,3.18,0,0,0-4.5,0c-7.34,7.34-7.38,7.8-9.12,7.8H42.92a3.18,3.18,0,0,0-3.18,3.18c0,10.37.3,10.74-.93,12l-6.87,6.87a3.18,3.18,0,0,0,0,4.5c7.34,7.34,7.8,7.38,7.8,9.12v9.71a3.18,3.18,0,0,0,3.18,3.18h9.71a3.18,3.18,0,0,1,2.25.93l6.87,6.87a3.18,3.18,0,0,0,4.5,0c7.34-7.34,7.38-7.8,9.12-7.8h9.71a3.18,3.18,0,0,0,3.18-3.18V60.37A3.18,3.18,0,0,1,89.2,58.12Z"/><circle class="cls-2" cx="64" cy="49" r="14.95"/><path class="cls-3" d="M59.15,78.46,39.78,112,33.89,98.21,19,100,39.73,64.09v6a3.18,3.18,0,0,0,3.18,3.18h9.71a3.18,3.18,0,0,1,2.25.93ZM88.27,64.09v6a3.18,3.18,0,0,1-3.18,3.18c-10.37,0-10.74-.3-12,.93l-4.27,4.27L88.22,112l5.89-13.79L109,100Z"/><path class="cls-4" d="M110.73,99,90.27,63.55V60.37a1.18,1.18,0,0,1,.35-.84l6.87-6.87a5.18,5.18,0,0,0,0-7.33l-6.87-6.87c-.56-.56-.35-.57-.35-10.55a5.19,5.19,0,0,0-5.18-5.18c-9.94,0-10,.21-10.55-.35l-6.87-6.87a5.19,5.19,0,0,0-7.33,0l-6.87,6.87c-.56.56-.61.35-10.55.35a5.19,5.19,0,0,0-5.18,5.18c0,10,.21,10-.35,10.55a2,2,0,0,0,2.83,2.83c2-2,1.52-3.24,1.52-13.38a1.18,1.18,0,0,1,1.18-1.18c14.09,0,10.2,1.66,20.25-8.39a1.19,1.19,0,0,1,1.67,0l6.87,6.87c2,2,3.23,1.52,13.38,1.52a1.18,1.18,0,0,1,1.18,1.18v9.71c0,2.78,1.22,3.37,8.39,10.53a1.18,1.18,0,0,1,0,1.67l-6.87,6.87a5.15,5.15,0,0,0-1.52,3.67v9.71c0,1.52-1.55,1.18-5.32,1.18a2,2,0,0,0,0,4h4.14a5.18,5.18,0,0,0,5-4l15.16,26.25L94.35,96.22a2,2,0,0,0-2.08,1.2l-4.32,10.12L78.1,90.48a2,2,0,0,0-3.46,2L86.48,113a2,2,0,0,0,3.57-.21l5.3-12.41,13.4,1.61A2,2,0,0,0,110.73,99Z"/><path class="cls-4" d="M75.17,85.41l-3.82-6.62,3.18-3.18a1.19,1.19,0,0,1,.84-.35,2,2,0,0,0,0-4c-2.78,0-3.37,1.22-10.53,8.39a1.19,1.19,0,0,1-1.67,0l-6.87-6.87a5.15,5.15,0,0,0-3.66-1.52H42.92a1.18,1.18,0,0,1-1.18-1.18V60.37a5.15,5.15,0,0,0-1.52-3.67c-8.68-8.68-8.53-6.88-4.78-10.63a2,2,0,0,0-2.83-2.83l-2.09,2.09a5.18,5.18,0,0,0,0,7.33l6.87,6.87c.54.54.35,1.14.35,4l-5,8.71a2,2,0,0,0,3.46,2l1.72-3a5.18,5.18,0,0,0,5,4h9.71a1.2,1.2,0,0,1,.84.35l3.18,3.18L40.05,107.54,35.73,97.42a2,2,0,0,0-2.08-1.2L22.73,97.54,33.37,79.12a2,2,0,0,0-3.46-2L17.27,99a2,2,0,0,0,2,3l13.4-1.61,5.3,12.41a2,2,0,0,0,3.57.21L59.58,81.72l.76.76a5.19,5.19,0,0,0,7.33,0l.76-.76,3.29,5.69A2,2,0,0,0,75.17,85.41Z"/><path class="cls-4" d="M56.76,38.26a2,2,0,0,0-2.24-3.31c-13.8,9.33-7.18,31,9.48,31a16.95,16.95,0,0,0,0-33.89,2,2,0,0,0,0,4,12.95,12.95,0,0,1,0,25.89C51.28,61.95,46.21,45.39,56.76,38.26Z"/></g></svg>