<svg xmlns="http://www.w3.org/2000/svg" viewBox="0 0 128 128"><defs><style>.cls-1{fill:#48b749;}.cls-2{fill:#fd0;}.cls-3{fill:#314967;}</style></defs><title>13 Discount</title><g id="_13_Discount" data-name="13 Discount"><path class="cls-1" d="M100.65,77.26l10-10a4.63,4.63,0,0,0,0-6.55C99.94,50,99.3,50,99.3,47.46V33.33a4.63,4.63,0,0,0-4.63-4.63c-15.13,0-15.62.43-17.4-1.36l-10-10a4.63,4.63,0,0,0-6.55,0C50,28.06,50,28.7,47.46,28.7H33.33a4.63,4.63,0,0,0-4.63,4.63c0,15.13.43,15.62-1.36,17.4l-10,10a4.63,4.63,0,0,0,0,6.55C28.06,78,28.7,78,28.7,80.54V94.67a4.63,4.63,0,0,0,4.63,4.63c15.13,0,15.62-.43,17.4,1.36l10,10a4.63,4.63,0,0,0,6.55,0C78,99.94,78,99.3,80.54,99.3H94.67a4.63,4.63,0,0,0,4.63-4.63C99.3,79.53,98.87,79,100.65,77.26Z"/><circle class="cls-2" cx="64" cy="64" r="28"/><path class="cls-3" d="M112.06,59.31l-10-10c-1-1-.77-.74-.77-16a6.64,6.64,0,0,0-6.63-6.63c-15.21,0-14.94.28-16-.77l-10-10a6.63,6.63,0,0,0-9.38,0l-5.54,5.54a2,2,0,0,0,2.83,2.83l5.54-5.54a2.69,2.69,0,0,1,3.72,0C76.42,29.33,77,30.7,80.54,30.7H94.67a2.63,2.63,0,0,1,2.63,2.63c0,14.93-.57,16.31,1.94,18.82l10,10a2.63,2.63,0,0,1,0,3.72C98.67,76.42,97.3,77,97.3,80.54a2,2,0,0,0,4,0c0-1.48,0-1.06,10.76-11.85A6.63,6.63,0,0,0,112.06,59.31Z"/><path class="cls-3" d="M97.3,87.3v7.36a2.63,2.63,0,0,1-2.63,2.63c-14.93,0-16.31-.57-18.82,1.94l-10,10a2.69,2.69,0,0,1-3.72,0c-14-14-9.69-11.93-23.16-11.93a2,2,0,0,0,0,4c9,0,9.31-.26,10.34.77l10,10a6.63,6.63,0,0,0,9.38,0l10-10c1-1,.74-.77,16-.77a6.64,6.64,0,0,0,6.63-6.63V87.3A2,2,0,0,0,97.3,87.3Z"/><path class="cls-3" d="M33.33,97.3a2.63,2.63,0,0,1-2.63-2.63c0-14.93.57-16.3-1.94-18.82l-10-10a2.63,2.63,0,0,1,0-3.72C29.33,51.58,30.7,51,30.7,47.46V33.33a2.63,2.63,0,0,1,2.63-2.63c14.93,0,16.3.57,18.82-1.94a2,2,0,0,0-2.83-2.83c-1,1-.73.77-16,.77a6.64,6.64,0,0,0-6.63,6.63c0,15.28.27,14.95-.77,16l-10,10a6.64,6.64,0,0,0,0,9.38C26.74,79.48,26.7,79.06,26.7,80.54V94.67a6.64,6.64,0,0,0,6.63,6.63A2,2,0,0,0,33.33,97.3Z"/><path class="cls-3" d="M46.11,45.14a2,2,0,0,0-2.75-2.9C23.74,60.84,37,94,64,94a30,30,0,0,0,0-60,2,2,0,0,0,0,4,26,26,0,0,1,0,52C40.56,90,29.14,61.23,46.11,45.14Z"/><path class="cls-3" d="M53.64,35.84a29.92,29.92,0,0,0-3.86,1.74,2,2,0,0,0,1.9,3.52A25.87,25.87,0,0,1,55,39.59,2,2,0,0,0,53.64,35.84Z"/><path class="cls-3" d="M80.26,72.46c0-9.4-13.19-9.32-13.18.07v.07C67.07,81.95,80.26,82,80.26,72.46Zm-4.76.07v.07c0,3.65-3.67,3.53-3.67-.14S75.5,69,75.5,72.53Z"/><path class="cls-3" d="M47.74,55.55c0,9.39,13.19,9.34,13.18-.14S47.7,46.08,47.74,55.55Zm4.76-.14c0-3.64,3.65-3.55,3.67.14S52.5,59.07,52.5,55.4Z"/><path class="cls-3" d="M54.18,73.66c-1.87,2.63,2,5,3.61,2.61L73.84,54.34c1.9-2.64-2.14-5-3.63-2.58l-16,21.89Z"/></g></svg>