<svg xmlns="http://www.w3.org/2000/svg" viewBox="0 0 128 128"><defs><style>.cls-1{fill:#5bc9e1;}.cls-2{fill:#fd0;}.cls-3{fill:#314967;}</style></defs><title>15 Open Sign</title><g id="_15_Open_Sign" data-name="15 Open Sign"><rect class="cls-1" x="16" y="64" width="96" height="36" rx="6" ry="6"/><circle class="cls-2" cx="64" cy="28" r="6"/><path class="cls-3" d="M92.73,98H22a4,4,0,0,1-4-4V70a4,4,0,0,1,4-4H42.54a2,2,0,0,0,0-4H32.83L59.93,34.89a8,8,0,0,0,8.13,0L81.71,48.54a2,2,0,0,0,2.83-2.83L70.88,32.06A8,8,0,0,0,64,20a2,2,0,0,0,0,4,4,4,0,1,1-3.49,2,2,2,0,0,0-3.49-2,8,8,0,0,0,.09,8L27.17,62H22a8,8,0,0,0-8,8V94a8,8,0,0,0,8,8H92.73A2,2,0,0,0,92.73,98Z"/><path class="cls-3" d="M106,62h-5.17L88.09,49.26a2,2,0,0,0-2.83,2.83L95.17,62H76a2,2,0,0,0,0,4h30a4,4,0,0,1,4,4V94a4,4,0,0,1-4,4H98.51a2,2,0,0,0,0,4H106a8,8,0,0,0,8-8V70A8,8,0,0,0,106,62Z"/><path class="cls-3" d="M70,62H49.22a2,2,0,0,0,0,4H70A2,2,0,0,0,70,62Z"/><path class="cls-3" d="M54.86,73.62a2.2,2.2,0,0,0-2.19,2.19v12.8a2.2,2.2,0,0,0,4.41,0V84.91h1.67a5.64,5.64,0,1,0,0-11.29ZM60,79.27c0,1.49-1.64,1.23-2.93,1.23V78C58.42,78,60,77.78,60,79.27Z"/><path class="cls-3" d="M77,78c2.86,0,2.93-4.41,0-4.41H69.92a2.17,2.17,0,0,0-2.19,2.19v12.8a2.2,2.2,0,0,0,1.25,2v.21h8c2.91,0,2.87-4.41,0-4.41H72.13v-2h4.06a2.2,2.2,0,0,0,0-4.41H72.13V78Z"/><path class="cls-3" d="M96.63,76c0-2.83-4.37-2.9-4.37,0v5.85l-5.19-7.19A2.18,2.18,0,0,0,83.13,76V88.62a2.18,2.18,0,0,0,4.37,0V82.71l5.1,7.08a2.19,2.19,0,0,0,4-1.17Z"/><path class="cls-3" d="M39.84,73.19a8.82,8.82,0,0,0,0,17.62A8.69,8.69,0,0,0,48.22,82C48.22,77.31,44.49,73.19,39.84,73.19Zm0,13.15c-5.3,0-5.26-8.68,0-8.68a4.36,4.36,0,0,1,0,8.68Z"/></g></svg>