<svg xmlns="http://www.w3.org/2000/svg" viewBox="0 0 128 128"><defs><style>.cls-1{fill:#bccd30;}.cls-2{fill:#48b749;}.cls-3{fill:#314967;}</style></defs><title>16 Clothes</title><g id="_16_Clothes" data-name="16 Clothes"><path class="cls-1" d="M88,96a4,4,0,0,1-4,4H44a4,4,0,0,1-4-4V56.28L31.5,64.77a4,4,0,0,1-5.66,0l-8.49-8.49a4,4,0,0,1,0-5.66C39.82,28.17,39.14,28,42.48,28h43a6,6,0,0,1,4.24,1.76l20.87,20.87a4,4,0,0,1,0,5.66l-8.49,8.49a4,4,0,0,1-5.66,0L88,56.28Z"/><path class="cls-2" d="M74,28a10,10,0,0,1-20,0Z"/><path class="cls-3" d="M86,80.71V96a2,2,0,0,1-2,2H44a2,2,0,0,1-2-2V56.28a2,2,0,0,0-3.41-1.41l-8.49,8.49a2,2,0,0,1-2.83,0l-8.49-8.49a2,2,0,0,1,0-2.83l9-9A2,2,0,0,0,25,40.2l-9,9a6,6,0,0,0,0,8.49l8.48,8.49a6,6,0,0,0,8.49,0L38,61.11V96a6,6,0,0,0,6,6H84a6,6,0,0,0,6-6V80.71A2,2,0,0,0,86,80.71Z"/><path class="cls-3" d="M86,70.6v4.22a2,2,0,0,0,4,0V70.6A2,2,0,0,0,86,70.6Z"/><path class="cls-3" d="M112,49.21C89.58,26.75,89.92,26,85.51,26h-43c-4.27,0-5.65,2.34-13,9.67a2,2,0,0,0,2.83,2.83c7.87-7.86,8-8.5,10.16-8.5h9.7a12,12,0,0,0,19.5,7.22,2,2,0,0,0-2.56-3.07A8,8,0,0,1,56.26,30H71.74a7.9,7.9,0,0,1-.41,1.2A2,2,0,0,0,75,32.81,11.88,11.88,0,0,0,75.82,30h9.7c2.28,0,.94-.71,23.7,22a2,2,0,0,1,0,2.83l-8.49,8.49a2,2,0,0,1-2.83,0l-8.49-8.49A2,2,0,0,0,86,56.28v8.78a2,2,0,0,0,4,0v-4l5.07,5.07a6,6,0,0,0,8.49,0L112,57.7A6,6,0,0,0,112,49.21Z"/></g></svg>