<svg xmlns="http://www.w3.org/2000/svg" viewBox="0 0 128 128"><defs><style>.cls-1{fill:#bccd30;}.cls-2{fill:#314967;}</style></defs><title>19 24-Hours Service</title><g id="_19_24-Hours_Service" data-name="19 24-Hours Service"><path class="cls-1" d="M26,74.27h0A44.92,44.92,0,0,0,53.75,102h0a46.19,46.19,0,0,0,18.89,2.29,6,6,0,0,0,3.72-1.74l8.74-8.74a3.56,3.56,0,0,0-2.39-6.07A45.13,45.13,0,0,1,72.61,86a4,4,0,0,0-3.91,1l-5,5a4,4,0,0,1-4.34.88,44.86,44.86,0,0,1-24.3-24.3A4,4,0,0,1,36,64.25c4.76-4.76,6.8-6,6-8.86A45.13,45.13,0,0,1,40.25,45.3a3.56,3.56,0,0,0-6.07-2.39l-8.75,8.75a6,6,0,0,0-1.74,3.72A46.14,46.14,0,0,0,26,74.27Z"/><path class="cls-2" d="M27.81,73.43a44.38,44.38,0,0,1-2.12-17.88,4,4,0,0,1,1.16-2.48l8.75-8.75a1.56,1.56,0,0,1,2.66,1.08A47.13,47.13,0,0,0,40,55.95c.41,1.43-.26,1.69-5.46,6.89a6,6,0,0,0-1.32,6.52A46.85,46.85,0,0,0,49.42,89.64a2,2,0,0,0,2.32-3.26A42.85,42.85,0,0,1,37,67.83c-1.42-3.43,8.86-6.32,6.92-13a43.17,43.17,0,0,1-1.64-9.65,5.56,5.56,0,0,0-9.48-3.69L24,50.24a8,8,0,0,0-2.32,5,48.43,48.43,0,0,0,2.39,19.72C25,77.53,28.95,75.93,27.81,73.43Z"/><path class="cls-2" d="M98.25,76A34.09,34.09,0,0,1,87,88a5.57,5.57,0,0,0-4.22-2.26,43.2,43.2,0,0,1-9.64-1.64,6,6,0,0,0-5.88,1.52l-5,5a2,2,0,0,1-2.16.45A43.14,43.14,0,0,1,55.85,89a2,2,0,0,0-1.93,3.5,47.15,47.15,0,0,0,4.72,2.27,6,6,0,0,0,6.52-1.32l5-5A2,2,0,0,1,72.05,88a47.22,47.22,0,0,0,10.54,1.79,1.59,1.59,0,0,1,1.44,1,1.48,1.48,0,0,1-.36,1.63l-8.75,8.75a4,4,0,0,1-2.49,1.16,43,43,0,0,1-42.1-23,2,2,0,0,0-3.55,1.84,47,47,0,0,0,46,25.12c3.74-.33,4.63-2,13.71-11.06a5.5,5.5,0,0,0,1.57-3.18A38.07,38.07,0,0,0,101.75,77.9,2,2,0,0,0,98.25,76Z"/><path class="cls-2" d="M102.49,59.51a33.9,33.9,0,0,1-2,11.42,2,2,0,0,0,3.77,1.34,37.89,37.89,0,0,0,2.2-12.76A2,2,0,0,0,102.49,59.51Z"/><path class="cls-2" d="M76.44,26.45A33.89,33.89,0,0,1,102,53.88a2,2,0,0,0,3.95-.66A37.89,37.89,0,0,0,77.37,22.56,2,2,0,0,0,76.44,26.45Z"/><path class="cls-2" d="M68.49,25.51q1.05,0,2.08.06a2,2,0,0,0,.24-4c-.77,0-1.55-.07-2.32-.07A2,2,0,0,0,68.49,25.51Z"/><path class="cls-2" d="M74.48,63.78h9.26v1.87a2.21,2.21,0,0,0,4.43,0V63.77a2.2,2.2,0,0,0,2.06-2.21,2.23,2.23,0,0,0-2.06-2.21c0-.32,0-12.67,0-12.35,0-1.66-2.6-2.79-3.72-1.44L72.69,60.2A2.2,2.2,0,0,0,74.48,63.78Zm9.26-10.21v5.78H79.08Z"/><path class="cls-2" d="M53.57,64a2.23,2.23,0,0,0,1.59,3.86h11c3,0,2.92-4.46,0-4.46H60.85c4.85-4.38,7.56-6,7.56-10.38a8,8,0,0,0-8-8c-3.38,0-5.08,1.81-6.33,2.94-2.15,2,.81,5.28,3,3.3,1-.9,1.76-1.77,3.35-1.77A3.48,3.48,0,0,1,64,53C64,55.11,63.61,54.92,53.57,64Z"/></g></svg>