<svg id="_20_Discussion" data-name="20 Discussion" xmlns="http://www.w3.org/2000/svg" viewBox="0 0 128 128"><defs><style>.cls-1{fill:#5bc9e1;}.cls-2{fill:#0083ca;}.cls-3{fill:#314967;}</style></defs><title>20 Discussion</title><path class="cls-1" d="M52,28C32.12,28,16,38.75,16,52c0,9.9,9,18.4,21.83,22.07V88l12-12c.7,0,1.41,0,2.12,0,19.88,0,36-10.75,36-24S71.88,28,52,28Z"/><path class="cls-2" d="M83.64,40.55C96.58,56.4,79.41,76,52,76c-.71,0-1.42,0-2.12,0l-2.55,2.55c8,7,20,9.87,30.79,9.45l12,12V86.07C122.29,76.89,117.82,45.48,83.64,40.55Z"/><path class="cls-3" d="M22.88,40.7A26.72,26.72,0,0,1,27.21,37a2,2,0,0,0-2.28-3.29A30.81,30.81,0,0,0,20,38,2,2,0,0,0,22.88,40.7Z"/><path class="cls-3" d="M31.7,34.39c8.67-4.21,19.15-5.22,28.31-3.77a2,2,0,0,0,.63-4c-10.18-1.61-21.43-.37-30.68,4.12A2,2,0,0,0,31.7,34.39Z"/><path class="cls-3" d="M65.08,31.7C85.8,37.35,92.65,54.1,78.71,65.56a2,2,0,0,0,2.54,3.09c16.13-13.26,9.31-34.15-15.12-40.8A2,2,0,0,0,65.08,31.7Z"/><path class="cls-3" d="M90.92,44.25c9,2.88,15.81,8.36,18.15,14.65a2,2,0,0,0,3.75-1.39C110,50,102.47,43.74,92.14,40.44A2,2,0,0,0,90.92,44.25Z"/><path class="cls-3" d="M110,64c0,10.17-10.38,17.29-20.38,20.15a2,2,0,0,0-1.45,1.92v9.1C77.4,84.41,79.91,86,76,86a50.2,50.2,0,0,1-11.9-1.4,2,2,0,0,0-.95,3.88A54.63,54.63,0,0,0,77.32,90l11.43,11.43A2,2,0,0,0,92.17,100V87.55C103.48,83.93,114,75.6,114,64A2,2,0,0,0,110,64Z"/><path class="cls-3" d="M59,83a35.55,35.55,0,0,1-8.71-4.7l.36-.36a50.77,50.77,0,0,0,25.07-5.65,2,2,0,0,0-1.92-3.51A46.3,46.3,0,0,1,52,74c-3.94,0-1.42-1.57-12.17,9.17,0-9.34.45-10.48-1.45-11C22,67.48,13.82,55.39,20.09,44.44a2,2,0,0,0-3.47-2c-7.25,12.66.89,27.24,19.22,33.1V88a2,2,0,0,0,3.41,1.41l8.21-8.21a38.7,38.7,0,0,0,10.16,5.58A2,2,0,0,0,59,83Z"/></svg>